<svg width="1080" height="1080" viewBox="0 0 1080 1080" fill="none" xmlns="http://www.w3.org/2000/svg">
<rect width="1080" height="1080" fill="#05122E"/>
<path d="M169 600.572L213.318 276.412H259.341L304.085 600.572H261.045L254.653 542.138H218.006L211.614 600.572H169ZM220.562 502.897H252.097L237.182 338.258H235.903L220.562 502.897ZM363.521 603.558C327.726 603.558 305.567 588.629 305.567 534.034V487.969H347.754V538.726C347.754 548.962 348.18 562.185 363.947 562.185C378.861 562.185 379.714 549.815 379.714 538.726V498.632C379.714 484.983 375.453 469.202 362.243 458.965L339.658 441.478C331.135 433.8 323.891 426.976 318.351 418.019C309.402 404.37 306.419 387.735 306.419 361.291V339.965C306.419 286.222 328.578 273 363.095 273C397.611 273 421.475 285.796 421.475 340.818V387.309H379.288V339.538C379.288 330.581 379.288 313.52 363.521 313.52C348.606 313.52 348.606 328.875 348.606 339.538V375.366C348.606 383.044 349.459 390.295 354.998 397.972C360.538 406.076 369.487 413.754 379.288 422.284L404.004 442.757C420.197 455.98 421.901 472.614 421.901 503.751V534.034C421.901 581.378 405.282 603.558 363.521 603.558ZM434.257 600.572V276.412H476.871V600.572H434.257ZM493.349 600.572V276.412H535.963L567.497 468.349H568.776L600.31 276.412H643.349V600.572H604.145V407.782H603.293L579.429 600.572H557.27L533.406 407.782H532.554V600.572H493.349ZM715.217 603.558C679.422 603.558 657.263 589.056 657.263 534.034V341.244C657.263 286.222 679.422 273 715.217 273C750.587 273 773.598 285.796 773.598 341.244V534.034C773.598 589.482 750.587 603.558 715.217 603.558ZM699.45 538.299C699.45 554.507 704.138 562.185 715.643 562.185C726.723 562.185 731.837 554.507 731.837 538.299V339.112C731.837 314.373 726.723 307.549 715.643 307.549C704.138 307.549 699.45 314.373 699.45 339.112V538.299ZM821.747 600.572L776.577 276.412H819.19C827.287 354.893 835.383 433.8 843.48 538.726H844.758C852.429 433.8 860.952 354.893 868.622 276.412H911.662L865.639 600.572H821.747Z" fill="#F6F6F6"/>
<path d="M170.062 643.224H198.188C216.511 643.224 228.23 652.608 228.23 672.015V707.203C228.23 724.691 217.577 733.434 199.04 733.434H183.486V805.304H170.062V643.224ZM183.486 721.065H198.188C210.759 721.065 214.807 715.307 214.807 707.416V673.508C214.807 657.726 205.006 655.38 195.418 655.38H183.486V721.065ZM234.466 805.304V643.224H263.869C283.045 643.224 292.633 655.167 292.633 672.015V699.526C292.633 713.814 287.094 720.639 278.145 722.345V722.771C287.307 723.411 292.207 729.809 292.207 740.472V795.281C292.207 801.039 292.42 802.318 293.699 803.385V805.304H280.488C279.423 802.745 278.997 800.825 278.997 786.75V741.325C278.997 733.434 276.227 730.022 267.917 730.022H252.577C248.528 730.022 247.889 731.302 247.889 734.927V805.304H234.466ZM247.889 716.8H267.917C274.523 716.8 279.423 712.108 279.423 703.151V673.508C279.423 667.749 278.571 655.38 261.952 655.38H247.889V716.8ZM326.984 807.01C309.725 807.01 298.007 799.546 298.007 771.822V675.853C298.007 648.129 309.725 641.518 326.984 641.518C344.029 641.518 356.174 647.916 356.174 675.853V771.822C356.174 799.759 344.029 807.01 326.984 807.01ZM311.217 773.741C311.217 787.39 316.543 794.001 327.197 794.001C337.637 794.001 342.964 787.39 342.964 773.741V674.787C342.964 658.366 337.637 652.608 327.197 652.608C316.543 652.608 311.217 658.366 311.217 674.787V773.741ZM417.486 643.224V655.593H392.983V805.304H379.56V655.593H354.844V643.224H417.486ZM445.178 807.01C427.92 807.01 416.201 799.546 416.201 771.822V675.853C416.201 648.129 427.92 641.518 445.178 641.518C462.224 641.518 474.369 647.916 474.369 675.853V771.822C474.369 799.759 462.224 807.01 445.178 807.01ZM429.411 773.741C429.411 787.39 434.738 794.001 445.391 794.001C455.832 794.001 461.158 787.39 461.158 773.741V674.787C461.158 658.366 455.832 652.608 445.391 652.608C434.738 652.608 429.411 658.366 429.411 674.787V773.741ZM508.958 806.797C491.7 806.797 479.981 798.906 479.981 771.822V675.853C479.981 648.129 491.7 641.518 508.958 641.518C526.004 641.518 538.148 648.769 538.148 675.853V703.151H524.725V673.508C524.725 659.645 519.825 652.608 508.745 652.608C498.518 652.608 493.404 658.579 493.404 672.441V773.101C493.404 779.712 493.404 793.788 509.384 793.788C519.612 793.788 524.725 787.816 524.725 774.168V744.311H538.148V771.822C538.148 799.759 526.004 806.797 508.958 806.797ZM571.072 807.01C553.813 807.01 542.094 799.546 542.094 771.822V675.853C542.094 648.129 553.813 641.518 571.072 641.518C588.117 641.518 600.262 647.916 600.262 675.853V771.822C600.262 799.759 588.117 807.01 571.072 807.01ZM555.305 773.741C555.305 787.39 560.631 794.001 571.285 794.001C581.725 794.001 587.052 787.39 587.052 773.741V674.787C587.052 658.366 581.725 652.608 571.285 652.608C560.631 652.608 555.305 658.366 555.305 674.787V773.741ZM607.153 643.224H620.789V792.935H656.158V805.304H607.153V643.224Z" fill="#F6F6F6"/>
</svg>
