<svg width="582" height="472" viewBox="0 0 582 472" fill="none" xmlns="http://www.w3.org/2000/svg">
<mask id="mask0_1_8" style="mask-type:luminance" maskUnits="userSpaceOnUse" x="0" y="0" width="582" height="472">
<path d="M581.403 0H0V472H581.403V0Z" fill="white"/>
</mask>
<g mask="url(#mask0_1_8)">
<path d="M96 267.757L119.238 97.7891H143.369L166.83 267.757H144.263L140.911 237.118H121.695L118.344 267.757H96ZM123.036 216.543H139.57L131.75 130.217H131.08L123.036 216.543ZM197.994 269.323C179.225 269.323 167.607 261.495 167.607 232.869V208.716H189.727V235.329C189.727 240.697 189.95 247.629 198.218 247.629C206.038 247.629 206.485 241.144 206.485 235.329V214.307C206.485 207.15 204.25 198.875 197.324 193.508L185.482 184.339C181.013 180.313 177.214 176.735 174.31 172.038C169.618 164.882 168.054 156.16 168.054 142.294V131.112C168.054 102.933 179.672 96 197.771 96C215.869 96 228.381 102.709 228.381 131.559V155.936H206.261V130.888C206.261 126.192 206.261 117.246 197.994 117.246C190.174 117.246 190.174 125.297 190.174 130.888V149.674C190.174 153.7 190.621 157.502 193.525 161.527C196.43 165.776 201.122 169.802 206.261 174.275L219.22 185.01C227.711 191.943 228.605 200.665 228.605 216.99V232.869C228.605 257.693 219.891 269.323 197.994 269.323ZM235.083 267.757V97.7891H257.427V267.757H235.083ZM266.068 267.757V97.7891H288.411L304.946 198.428H305.616L322.151 97.7891H344.718V267.757H324.162V166.671H323.715L311.202 267.757H299.583L287.071 166.671H286.624V267.757H266.068ZM382.401 269.323C363.632 269.323 352.013 261.719 352.013 232.869V131.783C352.013 102.933 363.632 96 382.401 96C400.946 96 413.012 102.709 413.012 131.783V232.869C413.012 261.943 400.946 269.323 382.401 269.323ZM374.133 235.106C374.133 243.604 376.591 247.629 382.624 247.629C388.434 247.629 391.115 243.604 391.115 235.106V130.665C391.115 117.693 388.434 114.115 382.624 114.115C376.591 114.115 374.133 117.693 374.133 130.665V235.106ZM438.258 267.757L414.574 97.7891H436.917C441.163 138.939 445.408 180.313 449.653 235.329H450.324C454.345 180.313 458.814 138.939 462.836 97.7891H485.403L461.272 267.757H438.258Z" fill="#F6F6F6"/>
<path d="M96.5571 290.121H111.304C120.912 290.121 127.056 295.042 127.056 305.217V323.668C127.056 332.837 121.47 337.422 111.751 337.422H103.595V375.105H96.5571V290.121ZM103.595 330.936H111.304C117.895 330.936 120.018 327.917 120.018 323.78V306C120.018 297.725 114.879 296.495 109.852 296.495H103.595V330.936ZM130.326 375.105V290.121H145.743C155.798 290.121 160.825 296.383 160.825 305.217V319.642C160.825 327.134 157.921 330.712 153.228 331.607V331.831C158.032 332.166 160.602 335.521 160.602 341.112V369.85C160.602 372.869 160.714 373.54 161.384 374.099V375.105H154.457C153.899 373.764 153.675 372.757 153.675 365.377V341.559C153.675 337.422 152.223 335.633 147.866 335.633H139.822C137.699 335.633 137.364 336.304 137.364 338.204V375.105H130.326ZM137.364 328.7H147.866C151.329 328.7 153.899 326.24 153.899 321.543V306C153.899 302.981 153.452 296.495 144.738 296.495H137.364V328.7ZM178.836 376C169.787 376 163.643 372.086 163.643 357.55V307.23C163.643 292.693 169.787 289.227 178.836 289.227C187.774 289.227 194.142 292.581 194.142 307.23V357.55C194.142 372.198 187.774 376 178.836 376ZM170.569 358.556C170.569 365.712 173.362 369.179 178.948 369.179C184.422 369.179 187.215 365.712 187.215 358.556V306.671C187.215 298.061 184.422 295.042 178.948 295.042C173.362 295.042 170.569 298.061 170.569 306.671V358.556ZM226.29 290.121V296.607H213.442V375.105H206.404V296.607H193.445V290.121H226.29ZM240.81 376C231.761 376 225.616 372.086 225.616 357.55V307.23C225.616 292.693 231.761 289.227 240.81 289.227C249.747 289.227 256.115 292.581 256.115 307.23V357.55C256.115 372.198 249.747 376 240.81 376ZM232.543 358.556C232.543 365.712 235.336 369.179 240.922 369.179C246.396 369.179 249.189 365.712 249.189 358.556V306.671C249.189 298.061 246.396 295.042 240.922 295.042C235.336 295.042 232.543 298.061 232.543 306.671V358.556ZM274.252 375.888C265.203 375.888 259.058 371.751 259.058 357.55V307.23C259.058 292.693 265.203 289.227 274.252 289.227C283.189 289.227 289.557 293.029 289.557 307.23V321.543H282.519V306C282.519 298.732 279.95 295.042 274.14 295.042C268.778 295.042 266.096 298.172 266.096 305.441V358.22C266.096 361.687 266.096 369.067 274.475 369.067C279.838 369.067 282.519 365.936 282.519 358.78V343.125H289.557V357.55C289.557 372.198 283.189 375.888 274.252 375.888ZM306.82 376C297.771 376 291.626 372.086 291.626 357.55V307.23C291.626 292.693 297.771 289.227 306.82 289.227C315.758 289.227 322.126 292.581 322.126 307.23V357.55C322.126 372.198 315.758 376 306.82 376ZM298.553 358.556C298.553 365.712 301.346 369.179 306.932 369.179C312.406 369.179 315.199 365.712 315.199 358.556V306.671C315.199 298.061 312.406 295.042 306.932 295.042C301.346 295.042 298.553 298.061 298.553 306.671V358.556ZM325.739 290.121H332.889V368.62H351.434V375.105H325.739V290.121Z" fill="#F6F6F6"/>
</g>
</svg>
