<svg width="148" height="44" fill="none" xmlns="http://www.w3.org/2000/svg"><path d="M77.994 22.532c0-4.908.003-9.776-.002-14.643-.002-1.18-.354-2.248-1.121-3.156-1.375-1.629-3.35-2.254-5.347-1.587-1.971.659-3.397 2.462-3.4 4.667-.01 5.158-.003 10.316-.003 15.474v.453h-2.544v-.43c0-5.118-.008-10.237.004-15.355.006-2.541 1.026-4.587 3.065-6.125C70.34.554 72.245.16 74.302.49c2.07.33 3.683 1.426 4.888 3.11.464-.48.887-.996 1.386-1.422C82.336.673 84.39.12 86.666.486c2.45.393 4.2 1.798 5.386 3.925.586 1.052.802 2.217.802 3.418.002 5.238.001 10.475 0 15.712 0 .052-.007.105-.013.188h-2.5v-.435c0-5.119.01-10.237-.005-15.356-.007-2.064-.962-3.617-2.788-4.541-2.005-1.015-4.373-.512-5.883 1.262-.789.928-1.14 1.993-1.137 3.216.017 5.132.007 10.264.007 15.395v.462h-2.541v-1.2ZM31.04 11.08c-1.146-1.326-1.638-2.852-1.556-4.561.09-1.902.92-3.437 2.362-4.66C33.132.769 34.637.367 36.293.369c5.383.01 10.766.004 16.148.004h.454v2.523h-.43c-5.45 0-10.898-.003-16.347.001-1.837.002-3.173.879-3.837 2.547-.663 1.668-.186 3.407 1.326 4.56.77.588 1.654.81 2.617.807 3.456-.01 6.913.027 10.37-.013 2.601-.03 5.107 1.9 5.928 4.21.69 1.945.556 3.835-.503 5.568-1.255 2.055-3.155 3.167-5.598 3.176-5.593.02-11.187.007-16.781.006-.038 0-.076-.01-.137-.02v-2.525h.416c5.395 0 10.791-.018 16.187.01 1.782.01 3.11-.707 3.895-2.278.634-1.27.557-2.583-.242-3.781-.849-1.274-2.058-1.84-3.607-1.821-3.258.038-6.518-.017-9.776.021-2.125.026-3.902-.67-5.336-2.284Z" fill="#000"/><path d="M98.534 8.233c.79-2.255 2.175-4.03 4.015-5.48C104 1.607 105.643.891 107.444.562A12.228 12.228 0 0 1 111.3.486c1.498.203 2.908.656 4.209 1.427 1.612.954 2.932 2.22 3.985 3.77.889 1.31 1.477 2.754 1.702 4.308.358 2.474.155 4.887-.984 7.179-1.096 2.204-2.724 3.899-4.829 5.12-2.031 1.177-4.263 1.584-6.596 1.427-3.161-.211-5.776-1.54-7.899-3.878-1.53-1.684-2.503-3.646-2.825-5.89-.243-1.687-.19-3.385.274-5.048.06-.214.122-.427.197-.67Zm18.917 8.658c1.267-2.093 1.674-4.342 1.171-6.735a8.847 8.847 0 0 0-2.817-4.88c-1.723-1.546-3.747-2.327-6.045-2.372-1.686-.033-3.264.397-4.73 1.25-2.352 1.37-3.815 3.4-4.37 6.033-.443 2.101-.176 4.15.828 6.083 1.056 2.032 2.659 3.467 4.763 4.31a8.917 8.917 0 0 0 5.495.396c2.429-.581 4.323-1.932 5.705-4.085ZM7.632 10.253c.788-1.401 1.565-2.775 2.339-4.15.74-1.32 1.476-2.643 2.217-3.963.383-.683.772-1.362 1.187-2.092L26.7 23.728c-.122.013-.218.03-.314.03-.818.003-1.636.014-2.453-.01a.583.583 0 0 1-.418-.247 1094.838 1094.838 0 0 1-4.297-7.597c-1.548-2.764-3.081-5.537-4.625-8.303-.393-.705-.8-1.402-1.22-2.136-.413.723-.815 1.421-1.21 2.122-.972 1.72-1.942 3.44-2.91 5.16-.903 1.604-1.801 3.21-2.704 4.813-.987 1.752-2.034 3.472-2.938 5.265-.4.793-.88 1.034-1.701.948-.625-.066-1.261-.013-1.91-.013l2.532-4.499 2.357-4.174c.764-1.355 1.524-2.712 2.289-4.066.141-.25.294-.494.454-.768ZM131.577 13.206c1.032 1.822 2.047 3.62 3.084 5.46.397-.704.772-1.372 1.149-2.038.791-1.397 1.588-2.792 2.375-4.191.95-1.686 1.89-3.378 2.838-5.065.923-1.641 1.851-3.28 2.777-4.919.334-.592.683-1.177.995-1.781.113-.219.234-.307.479-.304.891.012 1.783.005 2.725.005l-13.338 23.702L121.294.373c.776 0 1.52.045 2.256-.014.603-.049.912.158 1.2.698 1.058 1.981 2.181 3.928 3.284 5.886 1.172 2.081 2.35 4.16 3.543 6.263ZM57.977 2.664V.394h2.52v23.344h-2.52V2.664Z" fill="#000"/><path d="M107.923 11.87c.129-.893.825-1.527 1.648-1.535.957-.01 1.638.56 1.806 1.51.134.758-.402 1.648-1.177 1.875-1.208.353-2.432-.534-2.277-1.85ZM40.802 39.973c-1.089-.17-1.863-.815-2.651-1.583v1.515c0 1.174-.012 2.347.007 3.52.006.38-.131.52-.5.525-.873.01-.873.018-.873-.854 0-4.484-.002-8.968.008-13.451 0-.184.096-.511.185-.525.312-.047.643-.003.96.05.052.008.096.225.1.347.013.376.005.753.005 1.212.377-.33.685-.607 1-.874.977-.829 2.113-1.108 3.359-.91 1.63.26 2.57 1.31 3.015 2.823.472 1.6.478 3.231.065 4.843-.514 2.007-1.927 3.588-4.68 3.362Zm-2.64-7.36a93.591 93.591 0 0 0-.035 2.765c0 1.233.344 1.895 1.19 2.492.476.335.989.691 1.538.833 1.35.347 2.549-.423 3.065-1.898.568-1.621.535-3.264-.004-4.881-.418-1.255-1.324-1.904-2.554-1.79-1.034.094-3.167 1.228-3.2 2.48ZM57.428 39.075c-.863-.688-1.333-1.58-1.562-2.612-.346-1.565-.326-3.117.256-4.624.69-1.783 2.034-2.751 3.918-2.908.686-.057 1.402 0 2.078.135 1.39.278 2.373 1.13 2.877 2.45.76 1.992.755 3.999-.159 5.945-.721 1.537-2.007 2.342-3.67 2.504-1.323.129-2.608-.024-3.738-.89Zm5.657-1.347c.216-.388.491-.755.636-1.168.466-1.331.44-2.692.081-4.042-.4-1.502-1.464-2.354-2.942-2.406-1.725-.06-2.865.668-3.409 2.176-.389 1.08-.396 2.19-.253 3.311.105.824.36 1.582.91 2.229 1.09 1.277 3.808 1.302 4.977-.1ZM76.901 39.076c-.863-.689-1.333-1.581-1.562-2.613-.346-1.565-.326-3.117.256-4.624.69-1.783 2.034-2.751 3.918-2.908.686-.058 1.402 0 2.078.135 1.39.279 2.373 1.13 2.877 2.45.76 1.992.755 3.999-.159 5.945-.721 1.537-2.007 2.342-3.67 2.504-1.324.129-2.608-.024-3.738-.89Zm4.65-.593a2.946 2.946 0 0 0 1.539-1.62c.572-1.42.568-2.88.186-4.339-.395-1.505-1.46-2.357-2.935-2.412-1.723-.064-2.867.664-3.415 2.169-.388 1.066-.397 2.165-.264 3.272.1.834.331 1.628.918 2.264.91.984 2.501 1.255 3.971.666ZM98.805 39.178a4.018 4.018 0 0 1-1.507-2.061c-.575-1.771-.583-3.553.074-5.304.671-1.79 2.3-2.904 4.213-2.902.589.001 1.191.028 1.764.148 1.404.294 2.389 1.148 2.9 2.482.718 1.87.721 3.767-.031 5.625-.678 1.673-1.978 2.602-3.759 2.794-1.278.137-2.53.005-3.654-.782Zm4.226-.585c.79-.266 1.374-.78 1.727-1.527.686-1.449.681-2.965.302-4.48-.395-1.58-1.491-2.446-3.012-2.474-1.765-.032-2.926.747-3.413 2.344-.407 1.33-.387 2.682-.007 4.015.39 1.371 1.3 2.183 2.742 2.282.529.036 1.069-.084 1.661-.16ZM91.152 28.938c1.308-.132 2.5.064 3.556.849.389.288.573.652.497 1.124-.025.152-.108.348-.226.416-.091.053-.297-.036-.421-.112-.336-.206-.638-.47-.983-.655-2.094-1.12-4.077-.236-4.616 2.071-.325 1.395-.334 2.799.15 4.166.606 1.711 2.284 2.463 3.96 1.751.55-.233 1.046-.6 1.549-.933.4-.265.551-.217.627.251.086.532-.055.943-.535 1.247-1.42.899-2.936 1.123-4.538.653-1.186-.348-1.96-1.184-2.367-2.318-.681-1.897-.701-3.826-.033-5.731.553-1.576 1.684-2.507 3.38-2.779ZM70.355 37.052c.148 1.563 1.004 2.09 2.426 1.529.085-.034.173-.064.256-.102.26-.116.387-.037.436.246.113.656-.061 1.041-.709 1.128-.679.09-1.4.129-2.065 0-1.048-.204-1.507-1.03-1.663-2.023a8.346 8.346 0 0 1-.09-1.26c-.01-1.963-.004-3.928-.004-5.892v-.427c-.493 0-.963-.011-1.433.003-.414.012-.434-.273-.433-.556.002-.282.02-.57.434-.559.46.013.92.003 1.432.003v-2.168c0-.562.039-.6.61-.602.105 0 .21.002.316 0 .31-.009.45.125.444.452-.012.75.002 1.501.007 2.252 0 .01.016.02.053.066h2.531c.46 0 .6.134.596.566-.004.412-.141.542-.577.543h-2.57c0 2.269 0 4.517.002 6.8ZM110.148 39.894c-.123-.146-.28-.282-.288-.425-.03-.566-.012-1.134-.012-1.7V24.672c0-.564.033-.595.613-.597.132 0 .264-.005.395.004.229.015.371.119.358.373-.007.132-.001.264-.001.396V39.21c0 .692-.007.699-.714.697-.105 0-.211-.004-.351-.013ZM48.817 29.784c.058-.252.074-.62.183-.65.301-.082.644-.044.964-.003.067.01.146.233.151.36.02.419.008.838.008 1.35.12-.132.184-.199.244-.268.267-.309.515-.636.802-.924.87-.875 1.908-.909 3.004-.546.341.113.513 1.054.25 1.314-.047.047-.14.065-.212.066-.076 0-.152-.032-.227-.056-1.394-.436-1.915-.258-2.85.874-.667.808-1.036 1.652-.977 2.755.095 1.775.016 3.56.033 5.34.004.391-.158.523-.511.512-.105-.003-.211.001-.317 0-.487-.008-.545-.065-.545-.55v-9.574Z" fill="#000"/></svg>
