<svg width="260" height="260" viewBox="0 0 260 260" fill="none" xmlns="http://www.w3.org/2000/svg">
<rect x="2" y="2" width="256" height="256" rx="8" fill="#05122E"/>
<path d="M39.46 214L63.38 39.2H88.22L112.37 214H89.14L85.69 182.49H65.91L62.46 214H39.46ZM67.29 161.33H84.31L76.26 72.55H75.57L67.29 161.33ZM116.122 214V187.32H137.282V214H116.122ZM149.028 214V39.2H179.158C206.298 39.2 211.818 54.15 211.818 73.7V179.73C211.818 199.05 206.298 214 179.158 214H149.028ZM157.998 205.72H179.158C194.338 205.72 202.618 199.74 202.618 181.8V72.09C202.618 53.92 194.338 47.48 179.158 47.48H157.998V205.72Z" fill="white"/>
</svg>
