<svg width="1026" height="179" viewBox="0 0 1026 179" fill="none" xmlns="http://www.w3.org/2000/svg">
<path d="M0.46 177L24.38 2.19999H49.22L73.37 177H50.14L46.69 145.49H26.91L23.46 177H0.46ZM28.29 124.33H45.31L37.26 35.55H36.57L28.29 124.33ZM105.45 178.61C86.1296 178.61 74.1696 170.56 74.1696 141.12V116.28H96.9396V143.65C96.9396 149.17 97.1696 156.3 105.68 156.3C113.73 156.3 114.19 149.63 114.19 143.65V122.03C114.19 114.67 111.89 106.16 104.76 100.64L92.5696 91.21C87.9696 87.07 84.0596 83.39 81.0696 78.56C76.2396 71.2 74.6296 62.23 74.6296 47.97V36.47C74.6296 7.48999 86.5896 0.359998 105.22 0.359998C123.85 0.359998 136.73 7.25999 136.73 36.93V62H113.96V36.24C113.96 31.41 113.96 22.21 105.45 22.21C97.3996 22.21 97.3996 30.49 97.3996 36.24V55.56C97.3996 59.7 97.8596 63.61 100.85 67.75C103.84 72.12 108.67 76.26 113.96 80.86L127.3 91.9C136.04 99.03 136.96 108 136.96 124.79V141.12C136.96 166.65 127.99 178.61 105.45 178.61ZM143.628 177V2.19999H166.628V177H143.628ZM175.522 177V2.19999H198.522L215.542 105.7H216.232L233.252 2.19999H256.482V177H235.322V73.04H234.862L221.982 177H210.022L197.142 73.04H196.682V177H175.522ZM295.271 178.61C275.951 178.61 263.991 170.79 263.991 141.12V37.16C263.991 7.48999 275.951 0.359998 295.271 0.359998C314.361 0.359998 326.781 7.25999 326.781 37.16V141.12C326.781 171.02 314.361 178.61 295.271 178.61ZM286.761 143.42C286.761 152.16 289.291 156.3 295.501 156.3C301.481 156.3 304.241 152.16 304.241 143.42V36.01C304.241 22.67 301.481 18.99 295.501 18.99C289.291 18.99 286.761 22.67 286.761 36.01V143.42ZM352.77 177L328.39 2.19999H351.39C355.76 44.52 360.13 87.07 364.5 143.65H365.19C369.33 87.07 373.93 44.52 378.07 2.19999H401.3L376.46 177H352.77ZM396.966 177V150.32H418.126V177H396.966ZM429.872 177V2.19999H460.002C487.142 2.19999 492.662 17.15 492.662 36.7V142.73C492.662 162.05 487.142 177 460.002 177H429.872ZM438.842 168.72H460.002C475.182 168.72 483.462 162.74 483.462 144.8V35.09C483.462 16.92 475.182 10.48 460.002 10.48H438.842V168.72ZM507.587 177V2.19999H516.787V177H507.587ZM533.417 177V2.19999H564.467C585.627 2.19999 596.207 14.85 596.207 33.25V62.92C596.207 78.33 590.227 85.46 580.567 87.53V87.99C590.227 88.68 595.287 94.66 595.287 106.16V166.19C595.287 172.4 595.517 173.78 596.897 174.93V177H587.927C586.777 174.24 586.317 172.63 586.317 157.45V107.54C586.317 96.96 582.177 92.82 570.907 92.82H548.367C543.077 92.82 542.387 93.97 542.387 97.88V177H533.417ZM542.387 83.85H571.137C579.877 83.85 587.007 77.64 587.007 66.14V34.86C587.007 27.96 586.087 10.48 562.167 10.48H542.387V83.85ZM610.458 177V2.19999H659.678V10.48H619.658V80.17H655.998V88.45H619.658V168.72H662.208V177H610.458ZM700.772 178.61C682.372 178.61 669.492 169.87 669.492 140.89V37.39C669.492 7.48999 682.372 0.359998 700.772 0.359998C718.482 0.359998 732.282 8.40999 732.282 37.39V59.47H723.082V36.7C723.082 17.84 715.722 7.95 700.312 7.95C686.052 7.95 678.462 16.23 678.462 34.86V141.12C678.462 149.4 678.692 169.87 701.232 169.87C715.722 169.87 723.082 161.59 723.082 142.73V118.58H732.282V140.89C732.282 171.02 718.482 178.61 700.772 178.61ZM803.938 2.19999V10.48H774.728V177H765.528V10.48H736.318V2.19999H803.938ZM839.356 178.84C820.956 178.84 808.076 170.79 808.076 140.89V37.39C808.076 7.48999 820.956 0.359998 839.356 0.359998C857.066 0.359998 870.866 7.25999 870.866 37.39V140.89C870.866 171.02 857.066 178.84 839.356 178.84ZM816.816 142.5C816.816 161.36 824.636 170.1 839.586 170.1C854.306 170.1 861.666 161.36 861.666 142.5V36.24C861.666 15.77 854.306 7.95 839.586 7.95C824.636 7.95 816.816 15.77 816.816 36.24V142.5ZM885.829 177V2.19999H916.879C938.039 2.19999 948.619 14.85 948.619 33.25V62.92C948.619 78.33 942.639 85.46 932.979 87.53V87.99C942.639 88.68 947.699 94.66 947.699 106.16V166.19C947.699 172.4 947.929 173.78 949.309 174.93V177H940.339C939.189 174.24 938.729 172.63 938.729 157.45V107.54C938.729 96.96 934.589 92.82 923.319 92.82H900.779C895.489 92.82 894.799 93.97 894.799 97.88V177H885.829ZM894.799 83.85H923.549C932.289 83.85 939.419 77.64 939.419 66.14V34.86C939.419 27.96 938.499 10.48 914.579 10.48H894.799V83.85ZM985.015 177V119.04L953.045 2.19999H962.705L989.385 103.4H989.845L1016.06 2.19999H1025.95L994.215 119.04V177H985.015Z" fill="#05122E"/>
</svg>
